<?xml version="1.0" encoding="UTF-8"?>
<svg width="512px" height="512px" viewBox="0 0 512 512" version="1.1" xmlns="http://www.w3.org/2000/svg">
    <title>Book Icon</title>
    <g stroke="none" stroke-width="1" fill="none" fill-rule="evenodd">
        <path d="M256,0 C397.385,0 512,114.615 512,256 C512,397.385 397.385,512 256,512 C114.615,512 0,397.385 0,256 C0,114.615 114.615,0 256,0 Z" fill="#0284C7"></path>
        <path d="M128,128 L384,128 C393.941,128 402,136.059 402,146 L402,366 C402,375.941 393.941,384 384,384 L128,384 C118.059,384 110,375.941 110,366 L110,146 C110,136.059 118.059,128 128,128 Z" fill="#FFFFFF"></path>
        <path d="M256,128 L384,128 C393.941,128 402,136.059 402,146 L402,366 C402,375.941 393.941,384 384,384 L256,384 L256,128 Z" fill="#F3F4F6"></path>
        <path d="M158,176 L226,176 C230.418,176 234,179.582 234,184 L234,184 C234,188.418 230.418,192 226,192 L158,192 C153.582,192 150,188.418 150,184 L150,184 C150,179.582 153.582,176 158,176 Z" fill="#0284C7"></path>
        <path d="M158,208 L226,208 C230.418,208 234,211.582 234,216 L234,216 C234,220.418 230.418,224 226,224 L158,224 C153.582,224 150,220.418 150,216 L150,216 C150,211.582 153.582,208 158,208 Z" fill="#0284C7"></path>
        <path d="M158,240 L226,240 C230.418,240 234,243.582 234,248 L234,248 C234,252.418 230.418,256 226,256 L158,256 C153.582,256 150,252.418 150,248 L150,248 C150,243.582 153.582,240 158,240 Z" fill="#0284C7"></path>
        <path d="M286,176 L354,176 C358.418,176 362,179.582 362,184 L362,184 C362,188.418 358.418,192 354,192 L286,192 C281.582,192 278,188.418 278,184 L278,184 C278,179.582 281.582,176 286,176 Z" fill="#0284C7"></path>
        <path d="M286,208 L354,208 C358.418,208 362,211.582 362,216 L362,216 C362,220.418 358.418,224 354,224 L286,224 C281.582,224 278,220.418 278,216 L278,216 C278,211.582 281.582,208 286,208 Z" fill="#0284C7"></path>
        <path d="M286,240 L354,240 C358.418,240 362,243.582 362,248 L362,248 C362,252.418 358.418,256 354,256 L286,256 C281.582,256 278,252.418 278,248 L278,248 C278,243.582 281.582,240 286,240 Z" fill="#0284C7"></path>
    </g>
</svg>
